<svg width="44" height="37" viewBox="0 0 44 37" fill="none" xmlns="http://www.w3.org/2000/svg">
<path d="M43.9999 5.12674C42.3922 5.84505 40.6477 6.32393 38.8348 6.54627C40.699 5.43458 42.1186 3.67299 42.7856 1.56934C41.0411 2.59551 39.1256 3.34804 37.0732 3.75851C35.4314 2.01402 33.0883 0.919434 30.5057 0.919434C25.5459 0.919434 21.5096 4.95571 21.5096 9.91553C21.5096 10.6167 21.5781 11.3009 21.7491 11.9679C14.2751 11.5916 7.63924 8.01712 3.2096 2.56131C2.43997 3.89533 1.9953 5.43459 1.9953 7.09356C1.9953 10.2063 3.58587 12.9598 5.99737 14.5846C4.52652 14.5333 3.14119 14.1228 1.92689 13.4558V13.5584C1.92689 17.9197 5.02251 21.5626 9.14429 22.3835C8.39177 22.5887 7.58793 22.7085 6.76699 22.7085C6.1855 22.7085 5.62111 22.6572 5.07381 22.5545C6.2197 26.129 9.53766 28.7287 13.4713 28.7971C10.3928 31.2086 6.51045 32.6452 2.30315 32.6452C1.58483 32.6452 0.866513 32.611 0.148193 32.5255C4.13316 35.0738 8.85354 36.5618 13.9331 36.5618C30.4886 36.5618 39.5361 22.8453 39.5361 10.9588C39.5361 10.5654 39.536 10.1721 39.5189 9.79581C41.2805 8.5131 42.8027 6.93964 43.9999 5.12674Z" fill="white"/>
</svg>
